<svg xmlns="http://www.w3.org/2000/svg" xmlns:xlink="http://www.w3.org/1999/xlink" width="500" zoomAndPan="magnify" viewBox="0 0 375 374.999991" height="500" preserveAspectRatio="xMidYMid meet" version="1.0"><defs><clipPath id="425ee6e168"><path d="M 77.058594 225 L 298 225 L 298 243.574219 L 77.058594 243.574219 Z M 77.058594 225 " clip-rule="nonzero"/></clipPath><clipPath id="da14d0ee9b"><path d="M 85 131.074219 L 291 131.074219 L 291 236 L 85 236 Z M 85 131.074219 " clip-rule="nonzero"/></clipPath><clipPath id="f74a3ba748"><path d="M 77.058594 131.074219 L 298 131.074219 L 298 243.574219 L 77.058594 243.574219 Z M 77.058594 131.074219 " clip-rule="nonzero"/></clipPath></defs><rect x="-37.5" width="450" fill="#ffffff" y="-37.499999" height="449.999989" fill-opacity="1"/><rect x="-37.5" width="450" fill="#ffffff" y="-37.499999" height="449.999989" fill-opacity="1"/><g clip-path="url(#425ee6e168)"><path fill="#66649f" d="M 184.246094 228.167969 C 184.398438 228.46875 184.457031 228.632812 184.457031 228.632812 C 184.390625 228.472656 184.316406 228.324219 184.246094 228.167969 Z M 297.265625 238.773438 C 293.761719 234.980469 289.140625 230.148438 284.371094 225.226562 C 284.457031 225.359375 284.546875 225.496094 284.632812 225.628906 C 284.578125 225.625 284.523438 225.617188 284.464844 225.609375 C 286.367188 228.730469 288.28125 232.234375 290.183594 235.347656 C 257.375 233.183594 224.457031 232.671875 191.59375 233.816406 C 190.941406 231.953125 190.101562 230.371094 188.816406 228.941406 C 188.777344 228.949219 188.742188 228.953125 188.707031 228.960938 C 187.933594 228.644531 187.167969 228.394531 186.355469 228.234375 C 186.308594 228.367188 186.265625 228.5 186.222656 228.632812 L 184.457031 228.632812 C 182.144531 230.640625 180.238281 232.773438 178.179688 235.039062 C 147.429688 231.957031 116.425781 233.523438 85.558594 235.09375 C 86.085938 233.980469 86.601562 232.820312 87.121094 231.648438 C 82.070312 234.851562 78.292969 237.277344 77.707031 237.742188 C 82.375 239.191406 147.167969 239.632812 173.730469 238.476562 C 173.148438 241.09375 174.4375 242.3125 176.890625 242.710938 C 182.136719 243.558594 190.21875 242.992188 193.765625 241.847656 C 195.839844 241.175781 196.460938 239.425781 196.003906 237.777344 C 228.855469 238.652344 264.402344 238.96875 297.265625 238.773438 Z M 297.265625 238.773438 " fill-opacity="1" fill-rule="nonzero"/></g><path fill="#a6a5c4" d="M 188.769531 228.894531 C 188.785156 228.910156 188.800781 228.925781 188.816406 228.941406 C 188.777344 228.949219 188.742188 228.953125 188.707031 228.960938 C 188.726562 228.9375 188.75 228.917969 188.769531 228.894531 Z M 284.371094 225.226562 C 281.953125 221.523438 279.535156 217.820312 277.117188 214.121094 C 275.894531 214.03125 274.605469 213.945312 273.265625 213.859375 C 250.15625 212.414062 210.476562 212.121094 192.59375 225.457031 C 203.3125 218.992188 216.59375 217.269531 229.253906 217.46875 C 247.859375 217.761719 266.199219 221.640625 284.402344 225.503906 C 284.421875 225.539062 284.445312 225.574219 284.464844 225.609375 C 284.523438 225.617188 284.578125 225.625 284.632812 225.628906 C 284.546875 225.496094 284.457031 225.359375 284.371094 225.226562 Z M 114.804688 214.253906 C 112.011719 214.421875 109.175781 214.621094 106.296875 214.84375 C 102.335938 217.085938 95.140625 221.152344 90.839844 223.550781 C 94.886719 222.917969 98.898438 222.304688 102.898438 221.710938 C 111.160156 220.484375 119.378906 219.363281 127.792969 218.449219 C 137.597656 217.386719 147.515625 216.683594 157.296875 217.917969 C 167.078125 219.152344 176.789062 222.4375 184.457031 228.632812 C 172.5625 214.144531 146.589844 212.320312 114.804688 214.253906 Z M 114.804688 214.253906 " fill-opacity="1" fill-rule="nonzero"/><g clip-path="url(#da14d0ee9b)"><path fill="#eceef3" d="M 290.183594 235.347656 C 257.375 233.183594 224.457031 232.671875 191.59375 233.816406 C 190.941406 231.953125 190.101562 230.371094 188.816406 228.941406 C 188.800781 228.925781 188.785156 228.910156 188.769531 228.894531 C 188.75 228.917969 188.726562 228.9375 188.707031 228.960938 C 187.933594 228.644531 187.167969 228.394531 186.355469 228.234375 C 186.308594 228.367188 186.265625 228.5 186.222656 228.632812 L 184.457031 228.632812 C 184.457031 228.632812 184.398438 228.46875 184.246094 228.167969 C 184.316406 228.324219 184.390625 228.472656 184.457031 228.632812 C 172.5625 214.144531 146.589844 212.320312 114.804688 214.253906 C 112.011719 214.421875 109.175781 214.621094 106.296875 214.84375 C 102.269531 215.152344 98.167969 215.507812 94 215.890625 C 100.90625 210.953125 108.832031 204.59375 112.832031 201.339844 C 108.335938 200.769531 103.570312 200.246094 98.503906 199.789062 C 101.765625 196.816406 107.519531 191.921875 111.878906 188.484375 C 108.628906 187.777344 105.238281 187.09375 101.691406 186.4375 C 106.585938 183.292969 113.089844 178.574219 118.261719 174.746094 C 115.722656 173.828125 113.097656 172.910156 110.351562 172.003906 C 115.0625 170.117188 121.101562 166.414062 126.675781 163.640625 C 123.519531 162.019531 120.945312 160.773438 119.25 159.90625 C 127.839844 156.074219 139.667969 150.1875 147.730469 146.671875 C 146.152344 144.402344 144.753906 142.394531 143.605469 140.695312 C 150.117188 138.152344 157.808594 135.992188 164.707031 134.871094 C 165.191406 135.875 165.683594 136.929688 166.183594 138.03125 L 164.695312 138.304688 C 159.878906 139.1875 155.191406 140.65625 150.730469 142.675781 L 153.351562 146.34375 L 165.28125 163.054688 L 165.417969 163.242188 L 174.078125 158.007812 C 174.382812 158.890625 174.683594 159.789062 174.984375 160.695312 C 172.921875 151.5625 170.828125 142.25 168.945312 132.945312 C 180.597656 131.570312 192.507812 131.394531 204.179688 132.609375 C 200.972656 154.980469 198.957031 176.792969 194.277344 199.003906 C 201.878906 178.027344 213.035156 158.335938 227.195312 141.09375 C 232.207031 142.171875 236.933594 143.722656 241.640625 145.746094 C 241.054688 146.4375 240.46875 147.132812 239.882812 147.835938 C 250.882812 155.867188 261.769531 167.347656 271.089844 180.832031 C 268.925781 181.597656 266.746094 182.371094 264.5625 183.15625 C 270.019531 188.195312 276.746094 195.460938 280.5 200.226562 C 279.070312 200.402344 277.667969 200.582031 276.277344 200.765625 C 280.078125 205.246094 283.503906 210.011719 286.699219 214.945312 C 284.328125 214.710938 281.050781 214.40625 277.117188 214.121094 C 275.894531 214.03125 274.605469 213.945312 273.265625 213.859375 C 250.15625 212.414062 210.476562 212.121094 192.59375 225.457031 C 203.3125 218.992188 216.59375 217.269531 229.253906 217.46875 C 247.859375 217.761719 266.199219 221.640625 284.402344 225.503906 C 284.421875 225.539062 284.445312 225.574219 284.464844 225.609375 C 286.367188 228.730469 288.28125 232.234375 290.183594 235.347656 Z M 172.75 154.230469 C 171.535156 150.878906 170.308594 147.714844 169.101562 144.78125 C 170.308594 147.714844 171.535156 150.878906 172.75 154.230469 Z M 172.75 154.230469 C 173.191406 155.460938 173.636719 156.714844 174.074219 157.996094 C 173.636719 156.714844 173.191406 155.460938 172.75 154.230469 Z M 127.792969 218.449219 C 119.378906 219.363281 111.160156 220.484375 102.898438 221.710938 C 98.898438 222.304688 94.886719 222.917969 90.839844 223.550781 C 89.527344 226.109375 88.324219 228.917969 87.121094 231.648438 C 86.601562 232.820312 86.085938 233.980469 85.558594 235.09375 C 116.425781 233.523438 147.429688 231.957031 178.179688 235.039062 C 180.238281 232.773438 182.144531 230.640625 184.457031 228.632812 C 176.789062 222.4375 167.078125 219.152344 157.296875 217.917969 C 147.515625 216.683594 137.597656 217.386719 127.792969 218.449219 Z M 127.792969 218.449219 " fill-opacity="1" fill-rule="nonzero"/></g><path fill="#1b1140" d="M 174.078125 158.007812 L 165.417969 163.242188 L 165.28125 163.054688 L 153.351562 146.34375 L 150.730469 142.675781 C 155.191406 140.65625 159.878906 139.1875 164.695312 138.304688 L 166.183594 138.03125 C 166.1875 138.035156 166.1875 138.039062 166.191406 138.046875 C 166.34375 138.378906 166.496094 138.71875 166.648438 139.0625 C 166.65625 139.082031 166.667969 139.101562 166.675781 139.121094 C 166.824219 139.453125 166.972656 139.789062 167.121094 140.128906 C 167.136719 140.15625 167.148438 140.1875 167.160156 140.214844 C 167.308594 140.550781 167.457031 140.890625 167.605469 141.234375 C 167.617188 141.265625 167.632812 141.292969 167.644531 141.324219 C 167.792969 141.667969 167.941406 142.015625 168.09375 142.367188 C 168.105469 142.398438 168.117188 142.429688 168.132812 142.460938 C 168.285156 142.820312 168.441406 143.1875 168.59375 143.554688 C 168.601562 143.570312 168.609375 143.585938 168.613281 143.601562 C 168.773438 143.988281 168.9375 144.378906 169.097656 144.769531 C 169.101562 144.773438 169.101562 144.777344 169.101562 144.78125 C 170.753906 148.789062 172.4375 153.222656 174.074219 157.996094 C 174.078125 158 174.078125 158.003906 174.078125 158.007812 Z M 174.078125 158.007812 " fill-opacity="1" fill-rule="nonzero"/><g clip-path="url(#f74a3ba748)"><path fill="#071500" d="M 297.691406 238.382812 C 293.132812 233.460938 288.492188 228.625 283.820312 223.828125 L 280.003906 217.695312 C 279.378906 216.703125 278.746094 215.71875 278.117188 214.734375 C 280.960938 214.941406 283.808594 215.183594 286.648438 215.472656 C 286.761719 215.480469 286.882812 215.457031 286.988281 215.386719 C 287.230469 215.230469 287.300781 214.902344 287.140625 214.660156 C 285.449219 212.03125 283.6875 209.445312 281.835938 206.921875 C 280.914062 205.65625 279.960938 204.414062 278.996094 203.179688 C 278.511719 202.566406 278.019531 201.953125 277.527344 201.347656 L 277.355469 201.140625 C 277.496094 201.117188 277.640625 201.101562 277.78125 201.078125 C 278.898438 200.890625 279.992188 200.664062 281.046875 200.449219 C 280.902344 200.128906 280.742188 199.753906 280.519531 199.394531 C 280.304688 199.035156 280.011719 198.6875 279.855469 198.503906 C 279.476562 198.058594 279.109375 197.605469 278.726562 197.167969 C 277.96875 196.285156 277.195312 195.414062 276.421875 194.542969 C 274.871094 192.808594 273.289062 191.105469 271.675781 189.425781 C 270.0625 187.75 268.421875 186.101562 266.738281 184.492188 C 266.34375 184.117188 265.949219 183.742188 265.554688 183.371094 L 265.554688 183.367188 L 268.4375 182.367188 C 269.535156 181.992188 270.652344 181.492188 271.648438 181.011719 C 271.140625 180.082031 270.546875 179.058594 269.894531 178.140625 L 268.136719 175.761719 C 266.960938 174.207031 265.769531 172.660156 264.542969 171.144531 C 262.097656 168.105469 259.535156 165.15625 256.859375 162.316406 C 254.183594 159.480469 251.414062 156.726562 248.5 154.125 C 245.972656 151.855469 243.34375 149.699219 240.613281 147.675781 C 241.152344 146.984375 241.691406 146.296875 242.214844 145.609375 C 241.898438 145.332031 241.4375 145.011719 240.996094 144.835938 L 240.105469 144.476562 C 239.511719 144.242188 238.917969 144.015625 238.320312 143.792969 C 237.121094 143.351562 235.917969 142.933594 234.703125 142.542969 C 232.273438 141.761719 229.804688 141.105469 227.308594 140.574219 L 227.304688 140.570312 C 227.117188 140.53125 226.914062 140.597656 226.785156 140.757812 C 221.664062 147.046875 216.863281 153.601562 212.527344 160.453125 L 209.347656 165.640625 L 206.332031 170.925781 L 203.503906 176.3125 L 200.851562 181.785156 C 199.132812 185.46875 197.53125 189.207031 196.042969 192.988281 C 196.800781 189.0625 197.492188 185.125 198.125 181.183594 C 199.449219 173.121094 200.46875 165.023438 201.484375 156.929688 C 202.496094 148.835938 203.476562 140.742188 204.613281 132.671875 L 204.613281 132.652344 C 204.636719 132.410156 204.464844 132.199219 204.222656 132.171875 C 198.351562 131.582031 192.445312 131.34375 186.550781 131.425781 C 180.652344 131.472656 174.753906 131.835938 168.894531 132.511719 L 168.859375 132.515625 C 168.621094 132.5625 168.46875 132.792969 168.515625 133.03125 C 169.769531 139.3125 171.109375 145.578125 172.476562 151.832031 C 171.957031 150.460938 171.410156 149.09375 170.855469 147.734375 L 168.792969 142.757812 L 167.234375 139.03125 L 167.085938 138.679688 C 167.027344 138.542969 166.960938 138.410156 166.894531 138.273438 C 166.757812 138.007812 166.609375 137.75 166.457031 137.507812 C 166.441406 137.507812 166.421875 137.511719 166.40625 137.511719 C 165.972656 136.566406 165.53125 135.628906 165.085938 134.691406 C 165.007812 134.527344 164.828125 134.425781 164.640625 134.457031 C 161.015625 135.0625 157.4375 135.890625 153.90625 136.882812 C 150.371094 137.855469 146.878906 138.984375 143.453125 140.308594 C 143.425781 140.316406 143.394531 140.332031 143.371094 140.351562 C 143.179688 140.480469 143.128906 140.742188 143.261719 140.929688 C 144.519531 142.796875 145.792969 144.644531 147.066406 146.492188 C 145.882812 147.015625 144.703125 147.550781 143.527344 148.09375 C 140.804688 149.351562 138.09375 150.640625 135.386719 151.933594 C 132.683594 153.230469 129.96875 154.503906 127.25 155.773438 C 124.535156 157.042969 121.8125 158.300781 119.078125 159.511719 C 118.988281 159.550781 118.914062 159.621094 118.867188 159.710938 C 118.761719 159.921875 118.84375 160.179688 119.054688 160.285156 C 121.28125 161.414062 123.507812 162.527344 125.71875 163.664062 C 123.949219 164.570312 122.207031 165.527344 120.464844 166.480469 C 118.78125 167.40625 117.085938 168.3125 115.386719 169.191406 C 113.679688 170.066406 111.960938 170.910156 110.199219 171.617188 C 110.089844 171.660156 110 171.75 109.957031 171.871094 C 109.886719 172.089844 110.003906 172.324219 110.222656 172.398438 C 112.613281 173.203125 114.996094 174.039062 117.371094 174.898438 C 115.269531 176.457031 113.164062 178.007812 111.042969 179.535156 C 107.90625 181.804688 104.71875 184.003906 101.46875 186.09375 C 101.378906 186.152344 101.308594 186.25 101.289062 186.363281 C 101.246094 186.585938 101.394531 186.800781 101.617188 186.84375 C 104.726562 187.4375 107.824219 188.066406 110.914062 188.742188 C 109.308594 190.03125 107.71875 191.339844 106.140625 192.660156 C 103.480469 194.90625 100.816406 197.148438 98.226562 199.488281 C 98.152344 199.550781 98.105469 199.640625 98.09375 199.746094 C 98.066406 199.972656 98.230469 200.171875 98.457031 200.199219 L 98.464844 200.199219 L 110.011719 201.480469 C 110.582031 201.546875 111.15625 201.609375 111.726562 201.671875 C 109.371094 203.605469 107 205.523438 104.601562 207.40625 C 102.824219 208.804688 101.035156 210.1875 99.238281 211.558594 C 97.429688 212.914062 95.605469 214.25 93.765625 215.5625 C 93.65625 215.644531 93.585938 215.78125 93.597656 215.929688 C 93.617188 216.152344 93.816406 216.316406 94.039062 216.296875 C 97.488281 215.992188 100.941406 215.707031 104.394531 215.441406 L 99.789062 218.054688 L 95.222656 220.640625 L 90.683594 223.179688 L 90.644531 223.203125 C 90.640625 223.203125 90.640625 223.207031 90.636719 223.207031 C 90.570312 223.242188 90.507812 223.289062 90.46875 223.363281 C 89.179688 225.90625 88.070312 228.523438 86.933594 231.117188 L 82.546875 233.894531 L 79.953125 235.558594 C 79.085938 236.125 78.238281 236.660156 77.351562 237.296875 L 77.332031 237.308594 C 77.222656 237.386719 77.144531 237.5 77.113281 237.640625 C 77.050781 237.9375 77.238281 238.226562 77.535156 238.292969 C 77.804688 238.347656 78.09375 238.425781 78.351562 238.460938 L 79.117188 238.566406 L 80.632812 238.710938 C 81.636719 238.792969 82.640625 238.859375 83.644531 238.914062 C 85.648438 239.027344 87.652344 239.109375 89.65625 239.171875 C 93.660156 239.304688 97.664062 239.390625 101.671875 239.460938 C 109.679688 239.59375 117.6875 239.652344 125.699219 239.667969 C 133.707031 239.675781 141.714844 239.640625 149.722656 239.539062 C 153.726562 239.488281 157.734375 239.421875 161.738281 239.328125 C 165.535156 239.253906 169.332031 239.152344 173.128906 239.003906 C 173.078125 239.429688 173.0625 239.871094 173.140625 240.320312 C 173.257812 240.996094 173.609375 241.691406 174.15625 242.132812 C 175.242188 243.050781 176.59375 243.199219 177.742188 243.355469 C 180.132812 243.644531 182.523438 243.6875 184.90625 243.605469 C 187.289062 243.507812 189.667969 243.308594 192.035156 242.851562 C 192.628906 242.738281 193.21875 242.59375 193.8125 242.417969 C 194.425781 242.242188 195.0625 241.9375 195.574219 241.457031 C 196.09375 240.992188 196.46875 240.34375 196.628906 239.664062 C 196.714844 239.320312 196.734375 238.972656 196.726562 238.628906 C 196.71875 238.472656 196.707031 238.316406 196.679688 238.160156 C 198.621094 238.339844 200.414062 238.488281 202.320312 238.519531 L 208.648438 238.65625 L 221.308594 238.886719 C 229.746094 239.027344 238.1875 239.121094 246.625 239.199219 C 263.507812 239.378906 280.386719 239.441406 297.269531 239.351562 C 297.410156 239.351562 297.550781 239.300781 297.660156 239.199219 C 297.894531 238.980469 297.90625 238.613281 297.691406 238.382812 Z M 246.636719 238.15625 C 238.199219 238.070312 229.761719 237.9375 221.328125 237.78125 L 208.671875 237.511719 L 202.347656 237.359375 C 200.101562 237.285156 197.738281 237.335938 195.539062 237.414062 C 195.492188 237.566406 195.457031 237.765625 195.46875 237.957031 C 195.472656 238.046875 195.492188 238.167969 195.503906 238.210938 L 195.515625 238.304688 C 195.539062 238.429688 195.550781 238.550781 195.558594 238.675781 C 195.5625 238.921875 195.554688 239.167969 195.496094 239.398438 C 195.390625 239.867188 195.152344 240.292969 194.796875 240.621094 C 194.441406 240.957031 193.996094 241.1875 193.476562 241.34375 C 192.9375 241.507812 192.378906 241.648438 191.8125 241.765625 C 189.546875 242.234375 187.199219 242.441406 184.867188 242.546875 C 182.527344 242.632812 180.179688 242.597656 177.871094 242.324219 L 177.011719 242.203125 C 176.734375 242.160156 176.464844 242.105469 176.203125 242.035156 C 175.679688 241.894531 175.195312 241.671875 174.828125 241.359375 C 174.453125 241.054688 174.238281 240.628906 174.144531 240.144531 C 174.054688 239.660156 174.113281 239.117188 174.226562 238.585938 L 174.226562 238.578125 C 174.234375 238.535156 174.238281 238.496094 174.238281 238.453125 C 174.222656 238.171875 173.988281 237.957031 173.707031 237.96875 C 165.71875 238.324219 157.714844 238.460938 149.710938 238.53125 C 141.710938 238.605469 133.703125 238.617188 125.699219 238.585938 C 117.695312 238.550781 109.691406 238.472656 101.691406 238.316406 C 97.691406 238.238281 93.691406 238.144531 89.695312 238.003906 C 87.695312 237.933594 85.699219 237.847656 83.707031 237.746094 C 82.710938 237.695312 81.714844 237.632812 80.726562 237.558594 L 79.25 237.421875 L 79.195312 237.414062 C 79.648438 237.113281 80.113281 236.808594 80.570312 236.507812 L 83.148438 234.839844 L 86.125 232.941406 C 85.824219 233.605469 85.523438 234.269531 85.210938 234.929688 C 85.183594 234.984375 85.167969 235.046875 85.171875 235.113281 C 85.183594 235.328125 85.363281 235.492188 85.578125 235.480469 L 85.582031 235.480469 L 97.15625 234.929688 L 108.730469 234.464844 C 116.449219 234.179688 124.167969 233.964844 131.886719 233.898438 C 139.605469 233.820312 147.324219 233.8125 155.035156 234.058594 L 160.820312 234.277344 L 166.597656 234.585938 C 168.523438 234.714844 170.445312 234.863281 172.367188 235.011719 L 176.300781 235.386719 C 176.648438 235.53125 177.269531 235.9375 177.65625 237.054688 C 178.375 239.128906 181.394531 239.445312 183.929688 239.445312 C 184.539062 239.445312 185.125 239.425781 185.640625 239.410156 L 185.777344 239.40625 C 191.554688 239.226562 192.152344 237.402344 192.632812 235.9375 C 192.902344 235.117188 193.09375 234.546875 194.1875 234.269531 C 195.382812 234.246094 196.582031 234.21875 197.773438 234.175781 L 203.933594 234.003906 L 210.09375 233.875 L 216.253906 233.792969 C 224.46875 233.738281 232.683594 233.785156 240.898438 233.925781 C 249.113281 234.0625 257.328125 234.226562 265.539062 234.535156 C 273.75 234.832031 281.957031 235.246094 290.15625 235.757812 L 290.160156 235.757812 C 290.242188 235.765625 290.328125 235.746094 290.402344 235.699219 C 290.597656 235.578125 290.65625 235.324219 290.539062 235.132812 C 289.542969 233.515625 288.589844 231.875 287.636719 230.230469 C 287.257812 229.582031 286.878906 228.933594 286.5 228.285156 L 287.867188 229.699219 C 290.578125 232.515625 293.273438 235.34375 295.9375 238.203125 C 279.503906 238.300781 263.070312 238.289062 246.636719 238.15625 Z M 88.105469 230.378906 C 88.324219 229.878906 88.546875 229.378906 88.769531 228.882812 C 89.433594 228.824219 90.097656 228.765625 90.761719 228.710938 C 91.152344 228.675781 91.542969 228.640625 91.929688 228.609375 C 92.320312 228.574219 92.710938 228.542969 93.097656 228.511719 C 96.214844 228.261719 99.332031 228.027344 102.445312 227.796875 C 107.085938 227.414062 111.730469 227.089844 116.378906 226.824219 C 121.027344 226.578125 125.683594 226.496094 130.335938 226.351562 L 137.3125 226.101562 C 139.640625 226.015625 141.96875 225.972656 144.296875 225.925781 C 144.441406 225.921875 144.5625 225.800781 144.5625 225.65625 C 144.5625 225.507812 144.445312 225.382812 144.292969 225.382812 L 137.300781 225.351562 C 134.972656 225.347656 132.640625 225.351562 130.308594 225.410156 C 125.648438 225.523438 120.992188 225.8125 116.335938 226.046875 C 111.679688 226.265625 107.027344 226.535156 102.375 226.855469 C 99.789062 227.054688 97.207031 227.292969 94.625 227.546875 C 94.222656 227.585938 93.820312 227.628906 93.417969 227.667969 C 93.023438 227.707031 92.625 227.746094 92.230469 227.789062 C 91.191406 227.894531 90.152344 228.003906 89.113281 228.117188 C 89.753906 226.707031 90.410156 225.3125 91.105469 223.941406 C 91.109375 223.9375 91.109375 223.933594 91.113281 223.929688 C 92.378906 223.734375 93.648438 223.542969 94.914062 223.351562 C 96.234375 223.15625 97.550781 222.957031 98.867188 222.761719 C 99.472656 222.671875 100.074219 222.585938 100.675781 222.496094 C 101.101562 222.433594 101.523438 222.371094 101.945312 222.308594 C 102.371094 222.246094 102.796875 222.183594 103.222656 222.121094 C 107.066406 221.566406 110.910156 221.03125 114.761719 220.539062 C 122.726562 219.527344 130.714844 218.597656 138.703125 218.082031 C 146.6875 217.597656 154.746094 217.734375 162.570312 219.328125 C 166.472656 220.144531 170.300781 221.320312 173.9375 222.933594 C 175.753906 223.738281 177.53125 224.636719 179.226562 225.671875 C 179.660156 225.914062 180.066406 226.195312 180.484375 226.464844 C 180.902344 226.730469 181.316406 227.003906 181.714844 227.300781 L 182.320312 227.730469 L 182.621094 227.949219 L 182.6875 227.996094 L 182.851562 228.121094 C 183.03125 228.246094 183.222656 228.347656 183.4375 228.445312 C 183.417969 228.453125 183.398438 228.460938 183.378906 228.46875 C 183.136719 228.5625 182.902344 228.664062 182.675781 228.78125 C 181.539062 229.359375 180.625 230.175781 179.910156 231.027344 L 178.929688 230.652344 L 177.273438 230.039062 L 175.613281 229.453125 C 175.054688 229.261719 174.492188 229.097656 173.929688 228.921875 C 171.667969 228.265625 169.359375 227.804688 167.058594 227.320312 C 164.757812 226.835938 162.449219 226.382812 160.121094 226.050781 C 157.785156 225.742188 155.4375 225.582031 153.089844 225.472656 C 152.894531 225.464844 152.726562 225.613281 152.714844 225.808594 C 152.699219 226.003906 152.847656 226.179688 153.046875 226.195312 C 155.371094 226.375 157.6875 226.671875 159.996094 226.984375 C 162.304688 227.277344 164.617188 227.613281 166.898438 228.082031 C 169.1875 228.550781 171.425781 229.207031 173.671875 229.828125 L 177.046875 230.753906 C 177.878906 230.984375 178.703125 231.246094 179.527344 231.511719 C 178.632812 232.710938 178.109375 233.886719 177.875 234.492188 L 172.449219 234.019531 C 170.519531 233.886719 168.589844 233.753906 166.660156 233.601562 L 160.867188 233.253906 L 155.074219 232.992188 C 147.339844 232.714844 139.605469 232.621094 131.871094 232.746094 C 124.140625 232.882812 116.414062 233.164062 108.691406 233.515625 L 97.113281 234.101562 L 86.179688 234.671875 C 86.558594 233.847656 86.933594 233.019531 87.300781 232.191406 C 87.433594 231.886719 87.570312 231.582031 87.703125 231.277344 C 87.835938 230.976562 87.972656 230.679688 88.105469 230.378906 Z M 95.597656 221.308594 L 100.175781 218.742188 L 106.332031 215.292969 C 108.53125 215.132812 110.730469 214.988281 112.929688 214.855469 C 113.265625 214.832031 113.601562 214.816406 113.9375 214.796875 C 114.277344 214.777344 114.621094 214.757812 114.960938 214.738281 C 115.824219 214.691406 116.6875 214.636719 117.550781 214.59375 C 125.394531 214.1875 133.25 214.050781 141.082031 214.339844 C 144.996094 214.480469 148.90625 214.75 152.789062 215.230469 C 156.667969 215.707031 160.527344 216.390625 164.292969 217.402344 C 165.238281 217.636719 166.164062 217.945312 167.09375 218.230469 C 168.023438 218.523438 168.929688 218.886719 169.84375 219.210938 C 171.640625 219.953125 173.429688 220.722656 175.109375 221.695312 C 175.96875 222.144531 176.769531 222.691406 177.589844 223.203125 C 177.996094 223.460938 178.371094 223.769531 178.765625 224.046875 C 178.929688 224.171875 179.097656 224.289062 179.261719 224.410156 C 177.683594 223.492188 176.042969 222.671875 174.371094 221.941406 C 170.652344 220.300781 166.746094 219.148438 162.785156 218.300781 C 154.839844 216.628906 146.679688 216.453125 138.636719 216.917969 C 134.609375 217.140625 130.597656 217.5625 126.601562 218.023438 C 122.605469 218.484375 118.613281 218.996094 114.628906 219.542969 C 111.464844 219.980469 108.300781 220.441406 105.140625 220.914062 C 104.714844 220.980469 104.289062 221.042969 103.859375 221.105469 C 103.441406 221.167969 103.023438 221.230469 102.601562 221.292969 C 99.394531 221.78125 96.1875 222.285156 92.980469 222.792969 Z M 105.089844 208.03125 C 107.710938 205.980469 110.308594 203.90625 112.902344 201.820312 L 115.765625 202.246094 L 121.507812 203.101562 L 124.378906 203.53125 C 125.332031 203.691406 126.28125 203.886719 127.230469 204.066406 L 132.929688 205.152344 C 133.878906 205.339844 134.835938 205.5 135.777344 205.710938 L 138.597656 206.382812 L 144.246094 207.699219 C 144.328125 207.722656 144.410156 207.746094 144.496094 207.769531 C 145.425781 208.019531 146.359375 208.273438 147.289062 208.53125 C 147.546875 208.605469 147.800781 208.675781 148.054688 208.75 C 148.445312 208.859375 148.835938 208.96875 149.226562 209.082031 C 149.628906 209.195312 150.027344 209.3125 150.425781 209.429688 C 150.46875 209.445312 150.515625 209.457031 150.558594 209.46875 C 155.871094 211.035156 161.117188 212.820312 166.15625 215.105469 L 168.742188 216.382812 L 170.035156 217.027344 L 170.679688 217.351562 L 171.300781 217.71875 C 172.945312 218.710938 174.640625 219.628906 176.167969 220.789062 L 177.339844 221.617188 C 177.632812 221.808594 177.894531 222.042969 178.160156 222.269531 C 177.324219 221.75 176.507812 221.199219 175.632812 220.75 C 173.902344 219.757812 172.066406 218.976562 170.230469 218.226562 C 168.367188 217.539062 166.484375 216.902344 164.570312 216.386719 C 156.914062 214.292969 149 213.492188 141.125 213.171875 C 137.183594 213.007812 133.238281 213.03125 129.300781 213.113281 C 125.359375 213.195312 121.425781 213.371094 117.496094 213.605469 C 117.222656 213.625 116.949219 213.644531 116.675781 213.660156 C 116.332031 213.679688 115.988281 213.707031 115.644531 213.726562 C 115.308594 213.75 114.96875 213.773438 114.628906 213.792969 C 112.484375 213.933594 110.335938 214.085938 108.191406 214.253906 C 107.863281 214.277344 107.539062 214.300781 107.210938 214.328125 C 106.882812 214.355469 106.550781 214.375 106.222656 214.402344 C 102.617188 214.695312 99.015625 215.015625 95.417969 215.355469 C 98.679688 212.960938 101.898438 210.507812 105.089844 208.03125 Z M 99.472656 199.476562 C 101.816406 197.359375 104.203125 195.277344 106.636719 193.253906 C 108.382812 191.804688 110.140625 190.367188 111.921875 188.96875 C 116.3125 189.941406 120.679688 191.011719 125.007812 192.207031 C 132.71875 194.335938 140.324219 196.839844 147.707031 199.882812 C 151.238281 201.324219 154.699219 202.929688 158.089844 204.664062 C 158.25 204.746094 158.410156 204.824219 158.566406 204.90625 C 160.035156 205.675781 161.484375 206.488281 162.910156 207.332031 C 163.089844 207.4375 163.273438 207.539062 163.453125 207.648438 C 163.65625 207.769531 163.855469 207.890625 164.058594 208.011719 C 164.253906 208.132812 164.449219 208.257812 164.644531 208.378906 C 166.046875 209.25 167.429688 210.148438 168.777344 211.097656 C 169.710938 211.753906 170.625 212.441406 171.519531 213.144531 C 173.308594 214.554688 175.011719 216.058594 176.601562 217.675781 C 176.996094 218.070312 177.378906 218.472656 177.757812 218.886719 C 179.089844 220.34375 180.335938 221.886719 181.40625 223.539062 C 181.484375 223.65625 181.554688 223.777344 181.628906 223.898438 L 181.359375 223.628906 C 181.242188 223.503906 181.117188 223.382812 180.992188 223.261719 C 180.988281 223.257812 180.980469 223.25 180.976562 223.246094 C 180.394531 222.6875 179.757812 222.195312 179.148438 221.671875 C 178.761719 221.363281 178.410156 221.015625 178 220.746094 L 177.230469 220.207031 L 176.792969 219.90625 C 175.445312 218.890625 173.988281 218.066406 172.542969 217.222656 C 172.300781 217.078125 172.058594 216.941406 171.816406 216.796875 L 171.183594 216.425781 L 170.527344 216.097656 L 169.214844 215.453125 L 166.59375 214.148438 C 164.453125 213.164062 162.273438 212.273438 160.074219 211.445312 C 158.269531 210.769531 156.449219 210.136719 154.617188 209.539062 C 154.257812 209.421875 153.894531 209.304688 153.535156 209.191406 C 153.167969 209.074219 152.796875 208.957031 152.429688 208.84375 C 152.058594 208.730469 151.691406 208.617188 151.320312 208.507812 C 151.167969 208.460938 151.019531 208.414062 150.867188 208.371094 C 148.765625 207.742188 146.652344 207.144531 144.53125 206.570312 C 136.980469 204.71875 129.34375 203.246094 121.660156 202.117188 L 115.894531 201.308594 L 113.886719 201.027344 L 113.011719 200.902344 C 112.910156 200.886719 112.808594 200.878906 112.703125 200.867188 C 111.84375 200.753906 110.980469 200.679688 110.117188 200.582031 Z M 111.496094 180.164062 C 113.769531 178.539062 116.027344 176.886719 118.28125 175.230469 C 123.207031 177.039062 128.082031 178.984375 132.878906 181.105469 C 140.273438 184.382812 147.457031 188.128906 154.304688 192.398438 C 158.996094 195.378906 163.523438 198.660156 167.644531 202.375 C 168.789062 203.40625 169.914062 204.464844 170.988281 205.566406 C 169.335938 204.183594 167.648438 202.835938 165.914062 201.558594 C 165.046875 200.917969 164.164062 200.292969 163.285156 199.667969 C 162.777344 199.347656 162.273438 199.015625 161.761719 198.695312 C 161.347656 198.4375 160.929688 198.1875 160.5 197.957031 C 160.023438 197.695312 159.554688 197.417969 159.074219 197.171875 L 157.628906 196.433594 C 156.667969 195.925781 155.683594 195.488281 154.710938 195.011719 C 150.816406 193.144531 146.835938 191.472656 142.832031 189.867188 C 138.8125 188.296875 134.75 186.871094 130.652344 185.5 C 130.464844 185.4375 130.261719 185.535156 130.199219 185.71875 C 130.132812 185.90625 130.230469 186.113281 130.417969 186.179688 L 130.425781 186.183594 C 134.472656 187.617188 138.488281 189.171875 142.488281 190.742188 C 142.859375 190.886719 143.230469 191.035156 143.601562 191.179688 C 146.964844 192.488281 150.300781 193.855469 153.578125 195.355469 C 153.84375 195.476562 154.113281 195.59375 154.378906 195.714844 C 156.308594 196.652344 158.238281 197.601562 160.0625 198.707031 C 161 199.226562 161.863281 199.84375 162.75 200.429688 C 163.015625 200.617188 163.277344 200.8125 163.546875 201.003906 C 164.152344 201.441406 164.757812 201.875 165.359375 202.316406 C 167.5 203.886719 169.660156 205.453125 171.742188 207.109375 C 171.894531 207.226562 172.042969 207.347656 172.191406 207.46875 C 172.34375 207.589844 172.492188 207.710938 172.644531 207.835938 C 172.890625 208.035156 173.136719 208.238281 173.378906 208.445312 C 173.683594 208.695312 173.984375 208.949219 174.28125 209.207031 C 174.527344 209.503906 174.769531 209.800781 175.003906 210.105469 C 175.585938 210.847656 176.148438 211.601562 176.703125 212.363281 C 177.847656 214.007812 178.90625 215.710938 179.84375 217.480469 C 180.710938 219.121094 181.449219 220.824219 182.082031 222.566406 C 181.023438 221 179.828125 219.535156 178.554688 218.152344 C 177.191406 216.648438 175.691406 215.28125 174.171875 213.953125 C 172.625 212.652344 171.03125 211.40625 169.386719 210.238281 C 168.425781 209.554688 167.445312 208.898438 166.460938 208.253906 C 166.269531 208.128906 166.074219 208.011719 165.882812 207.886719 C 165.695312 207.765625 165.503906 207.644531 165.316406 207.527344 C 163.28125 206.246094 161.207031 205.039062 159.089844 203.914062 C 155.519531 202.050781 151.871094 200.339844 148.152344 198.804688 C 147.230469 198.394531 146.285156 198.058594 145.351562 197.683594 C 144.414062 197.324219 143.480469 196.949219 142.53125 196.613281 L 139.6875 195.613281 L 138.261719 195.117188 L 136.828125 194.652344 C 134.914062 194.046875 133.007812 193.410156 131.074219 192.871094 C 129.144531 192.304688 127.21875 191.738281 125.273438 191.246094 C 121.148438 190.148438 117 189.15625 112.835938 188.25 C 112.664062 188.210938 112.492188 188.175781 112.320312 188.136719 C 112.152344 188.101562 111.980469 188.066406 111.8125 188.03125 C 108.804688 187.382812 105.789062 186.785156 102.765625 186.222656 C 105.726562 184.269531 108.609375 182.210938 111.496094 180.164062 Z M 115.75 169.894531 C 117.460938 169.003906 119.140625 168.066406 120.835938 167.15625 C 122.753906 166.125 124.671875 165.089844 126.617188 164.125 C 127.769531 164.722656 128.914062 165.324219 130.054688 165.941406 C 133.675781 167.894531 137.242188 169.953125 140.726562 172.136719 C 147.625 176.4375 154.179688 181.285156 160.222656 186.691406 C 159.929688 186.488281 159.636719 186.285156 159.339844 186.085938 C 155.863281 183.777344 152.1875 181.816406 148.503906 179.894531 C 144.820312 177.964844 141.078125 176.160156 137.285156 174.464844 C 133.476562 172.796875 129.609375 171.28125 125.695312 169.871094 C 125.511719 169.804688 125.304688 169.898438 125.234375 170.082031 C 125.164062 170.269531 125.257812 170.476562 125.445312 170.546875 L 125.449219 170.550781 C 129.3125 172.019531 133.117188 173.660156 136.90625 175.324219 C 140.707031 176.960938 144.460938 178.707031 148.144531 180.585938 C 151.820312 182.488281 155.367188 184.617188 158.820312 186.875 C 161.039062 188.34375 163.253906 189.863281 165.296875 191.574219 C 169.429688 195.855469 173.140625 200.535156 176.203125 205.628906 C 176.425781 206.019531 176.652344 206.410156 176.878906 206.800781 C 176.949219 206.921875 177.015625 207.042969 177.085938 207.164062 C 177.15625 207.289062 177.222656 207.417969 177.292969 207.542969 C 177.433594 207.792969 177.578125 208.042969 177.710938 208.300781 L 178.328125 209.539062 L 179.078125 211.042969 C 179.359375 211.679688 179.628906 212.320312 179.898438 212.960938 C 180.027344 213.261719 180.152344 213.5625 180.28125 213.863281 C 180.378906 214.097656 180.488281 214.332031 180.574219 214.570312 L 180.828125 215.292969 L 181.332031 216.738281 C 181.46875 217.152344 181.628906 217.554688 181.753906 217.96875 C 181.773438 218.042969 181.796875 218.117188 181.816406 218.191406 L 182.222656 219.667969 L 182.441406 220.453125 C 181.945312 219.269531 181.40625 218.105469 180.800781 216.976562 C 179.832031 215.167969 178.742188 213.425781 177.566406 211.75 C 177.121094 211.140625 176.664062 210.539062 176.203125 209.941406 C 175.621094 209.1875 175.019531 208.445312 174.398438 207.722656 C 174.289062 207.597656 174.179688 207.472656 174.074219 207.351562 C 173.964844 207.230469 173.863281 207.105469 173.753906 206.984375 C 173.746094 206.976562 173.742188 206.96875 173.734375 206.960938 C 168.3125 200.820312 161.78125 195.796875 154.925781 191.414062 C 154.070312 190.863281 153.191406 190.351562 152.324219 189.816406 L 151.019531 189.027344 L 149.6875 188.28125 L 147.019531 186.796875 L 144.308594 185.390625 L 142.957031 184.6875 L 141.585938 184.023438 L 138.839844 182.695312 C 137 181.832031 135.136719 181.015625 133.285156 180.183594 C 128.628906 178.175781 123.910156 176.320312 119.144531 174.597656 C 118.992188 174.542969 118.839844 174.488281 118.6875 174.433594 C 118.53125 174.378906 118.375 174.324219 118.222656 174.265625 C 115.996094 173.46875 113.761719 172.699219 111.519531 171.953125 C 112.960938 171.320312 114.363281 170.621094 115.75 169.894531 Z M 135.722656 152.640625 C 138.4375 151.367188 141.152344 150.097656 143.878906 148.859375 C 145.105469 148.308594 146.335938 147.757812 147.570312 147.222656 C 148.453125 148.503906 149.339844 149.785156 150.21875 151.070312 C 152.53125 154.449219 154.8125 157.851562 157.035156 161.289062 C 158.054688 162.867188 159.0625 164.453125 160.054688 166.046875 C 159.089844 164.894531 158.105469 163.765625 157.121094 162.636719 C 155.394531 160.644531 153.65625 158.664062 151.847656 156.746094 C 150.015625 154.847656 148.109375 153.035156 146.15625 151.253906 C 146.011719 151.125 145.789062 151.128906 145.65625 151.269531 C 145.515625 151.414062 145.519531 151.640625 145.664062 151.78125 L 145.667969 151.785156 C 147.550781 153.597656 149.355469 155.507812 151.167969 157.398438 C 152.996094 159.277344 154.804688 161.175781 156.535156 163.144531 C 158.265625 165.117188 159.835938 167.214844 161.449219 169.273438 C 162.347656 170.425781 163.246094 171.578125 164.117188 172.75 C 165.988281 175.929688 167.796875 179.144531 169.550781 182.386719 C 169.691406 182.652344 169.832031 182.921875 169.972656 183.191406 C 170.34375 183.890625 170.714844 184.589844 171.078125 185.289062 C 171.496094 186.101562 171.910156 186.917969 172.316406 187.734375 C 173.566406 190.25 174.753906 192.792969 175.871094 195.367188 C 175.507812 194.730469 175.140625 194.09375 174.757812 193.46875 C 172.3125 189.476562 169.484375 185.75 166.613281 182.082031 C 165.925781 181.191406 165.222656 180.308594 164.503906 179.4375 C 163.761719 178.535156 163.003906 177.644531 162.226562 176.765625 C 161.585938 176.042969 160.929688 175.328125 160.265625 174.625 C 159.296875 173.601562 158.308594 172.597656 157.28125 171.628906 C 153.863281 168.429688 150.085938 165.621094 146.105469 163.171875 C 145.9375 163.070312 145.714844 163.117188 145.609375 163.285156 C 145.503906 163.453125 145.554688 163.675781 145.722656 163.785156 C 149.445312 166.15625 152.925781 168.886719 156.164062 171.878906 C 156.320312 172.023438 156.480469 172.167969 156.640625 172.316406 C 157.183594 172.820312 157.71875 173.332031 158.246094 173.851562 C 159.035156 174.625 159.804688 175.417969 160.5625 176.222656 C 162.464844 178.25 164.269531 180.375 166 182.5625 C 168.871094 186.210938 171.511719 190.03125 173.953125 193.964844 C 175.171875 195.933594 176.351562 197.925781 177.429688 199.972656 C 177.945312 200.941406 178.429688 201.925781 178.886719 202.921875 C 179.105469 203.523438 179.328125 204.125 179.539062 204.730469 C 179.753906 205.351562 179.953125 205.980469 180.15625 206.605469 C 180.195312 206.730469 180.238281 206.851562 180.277344 206.976562 C 180.320312 207.105469 180.363281 207.234375 180.40625 207.363281 C 180.738281 208.425781 181.058594 209.492188 181.359375 210.566406 C 181.609375 211.554688 181.878906 212.539062 182.109375 213.53125 L 182.746094 216.515625 L 183.113281 218.65625 L 183.164062 218.949219 L 182.992188 218.34375 L 182.859375 217.871094 C 182.730469 217.367188 182.523438 216.886719 182.359375 216.390625 L 181.839844 214.917969 L 181.578125 214.183594 C 181.488281 213.9375 181.378906 213.703125 181.277344 213.460938 C 180.863281 212.507812 180.464844 211.542969 180.039062 210.597656 L 178.636719 207.808594 C 178.578125 207.695312 178.511719 207.585938 178.453125 207.476562 C 178.382812 207.347656 178.3125 207.222656 178.242188 207.097656 C 178.171875 206.976562 178.105469 206.851562 178.039062 206.730469 C 177.726562 206.1875 177.40625 205.644531 177.101562 205.09375 C 172.851562 197.941406 167.363281 191.582031 161.214844 186.023438 C 160.464844 185.308594 159.671875 184.640625 158.886719 183.960938 L 157.710938 182.945312 L 156.507812 181.964844 C 155.703125 181.308594 154.898438 180.65625 154.070312 180.039062 C 153.242188 179.414062 152.429688 178.769531 151.585938 178.171875 C 148.242188 175.722656 144.796875 173.425781 141.273438 171.257812 C 137.746094 169.089844 134.144531 167.054688 130.492188 165.117188 C 129.546875 164.613281 128.597656 164.117188 127.644531 163.625 C 127.488281 163.546875 127.332031 163.46875 127.175781 163.390625 C 127.023438 163.3125 126.871094 163.234375 126.71875 163.160156 C 124.566406 162.0625 122.398438 160.992188 120.242188 159.921875 C 125.441406 157.5625 130.5625 155.054688 135.722656 152.640625 Z M 154.113281 137.617188 C 157.523438 136.6875 160.976562 135.910156 164.464844 135.339844 C 164.816406 136.089844 165.164062 136.84375 165.507812 137.601562 C 165.289062 137.628906 165.070312 137.660156 164.859375 137.699219 L 163.527344 137.96875 C 162.675781 138.144531 161.824219 138.34375 160.980469 138.554688 C 159.292969 138.996094 157.621094 139.476562 155.964844 140.023438 C 154.3125 140.574219 152.679688 141.1875 151.078125 141.878906 L 150.777344 142.011719 L 150.628906 142.078125 L 150.554688 142.113281 L 150.515625 142.128906 L 150.5 142.136719 L 150.488281 142.140625 C 150.019531 143.898438 150.363281 142.632812 150.257812 143.027344 L 150.632812 143.554688 L 151.386719 144.609375 L 151.417969 144.652344 L 151.691406 145.027344 L 151.882812 145.289062 L 151.96875 145.40625 L 152.5 146.132812 L 152.914062 146.703125 C 154.941406 149.5 157.011719 152.261719 159.054688 155.050781 L 162.09375 159.246094 L 164.121094 162.117188 L 165.082031 163.480469 C 165.199219 163.640625 165.417969 163.695312 165.597656 163.605469 C 165.605469 163.601562 165.613281 163.601562 165.621094 163.59375 L 165.628906 163.589844 L 166.058594 163.339844 L 170 161.042969 C 171.269531 160.300781 172.542969 159.5625 173.808594 158.816406 C 174.011719 159.414062 174.210938 160.007812 174.410156 160.609375 L 178.828125 180.625 C 180.308594 187.457031 181.726562 194.300781 182.917969 201.179688 C 182.808594 200.785156 182.695312 200.386719 182.566406 199.996094 L 181.691406 197.28125 L 180.71875 194.601562 C 180.402344 193.703125 180.050781 192.824219 179.707031 191.9375 C 179.363281 191.050781 179.039062 190.160156 178.675781 189.28125 C 177.316406 185.734375 175.832031 182.238281 174.300781 178.765625 C 172.722656 175.308594 171.035156 171.910156 169.265625 168.546875 C 169.175781 168.375 168.960938 168.304688 168.789062 168.390625 C 168.785156 168.390625 168.785156 168.390625 168.785156 168.390625 C 168.605469 168.480469 168.535156 168.699219 168.621094 168.875 L 168.625 168.878906 C 170.320312 172.257812 171.882812 175.710938 173.441406 179.15625 C 174.515625 181.492188 175.566406 183.84375 176.570312 186.214844 C 177.039062 187.328125 177.503906 188.445312 177.949219 189.566406 C 179.324219 193.089844 180.546875 196.671875 181.664062 200.277344 C 182.300781 202.316406 182.925781 204.359375 183.46875 206.425781 C 183.503906 206.550781 183.535156 206.671875 183.570312 206.796875 C 183.601562 206.925781 183.636719 207.054688 183.667969 207.1875 C 183.886719 208.058594 184.09375 208.9375 184.273438 209.820312 C 184.300781 210.046875 184.332031 210.273438 184.359375 210.5 L 184.742188 213.511719 L 185.039062 216.53125 C 185.125 217.539062 185.257812 218.542969 185.308594 219.554688 L 185.496094 222.578125 L 185.542969 223.335938 C 185.554688 223.59375 185.574219 223.820312 185.578125 224.121094 C 185.589844 224.640625 185.613281 225.179688 185.65625 225.722656 L 185.644531 227.964844 C 185.636719 227.964844 185.628906 227.964844 185.625 227.964844 C 185.449219 227.976562 185.289062 228.003906 185.121094 228.027344 C 185.066406 228.035156 185.011719 228.039062 184.957031 228.046875 C 184.949219 228.050781 184.9375 228.050781 184.925781 228.050781 C 184.921875 228.050781 184.917969 228.050781 184.910156 228.054688 C 184.902344 228.054688 184.894531 228.054688 184.886719 228.054688 C 184.890625 228.035156 184.890625 228.015625 184.890625 227.996094 C 184.917969 227.617188 184.941406 227.25 184.953125 226.886719 C 184.96875 226.4375 184.972656 225.992188 184.953125 225.53125 L 184.796875 223.652344 L 184.695312 222.441406 L 184.488281 220.875 L 184.292969 219.367188 L 184.070312 218.125 L 183.75 216.320312 L 183.078125 213.300781 C 183.003906 212.988281 182.921875 212.675781 182.839844 212.367188 C 182.664062 211.679688 182.480469 210.996094 182.300781 210.308594 C 182.019531 209.304688 181.730469 208.300781 181.425781 207.304688 C 181.386719 207.175781 181.347656 207.046875 181.308594 206.921875 C 181.269531 206.792969 181.230469 206.667969 181.191406 206.542969 C 180.964844 205.828125 180.738281 205.113281 180.496094 204.402344 C 179.238281 200.699219 177.800781 197.0625 176.230469 193.488281 C 175.695312 192.273438 175.152344 191.070312 174.585938 189.871094 C 174.152344 188.941406 173.707031 188.015625 173.253906 187.097656 C 172.386719 185.332031 171.488281 183.578125 170.566406 181.84375 C 168.652344 178.207031 166.597656 174.648438 164.46875 171.136719 C 162.34375 167.625 160.140625 164.160156 157.882812 160.730469 C 155.628906 157.304688 153.3125 153.917969 150.976562 150.546875 C 150.125 149.316406 149.261719 148.089844 148.402344 146.863281 C 148.316406 146.738281 148.230469 146.617188 148.144531 146.492188 C 148.058594 146.371094 147.976562 146.25 147.890625 146.128906 C 146.671875 144.390625 145.457031 142.648438 144.257812 140.898438 C 147.484375 139.648438 150.777344 138.554688 154.113281 137.617188 Z M 186.558594 132.1875 C 192.277344 132.144531 197.996094 132.40625 203.683594 132.996094 C 202.527344 140.921875 201.503906 148.863281 200.445312 156.796875 C 199.375 164.878906 198.238281 172.949219 196.988281 181 C 196.007812 187.179688 194.910156 193.34375 193.625 199.464844 C 193.042969 201.101562 192.476562 202.75 191.9375 204.402344 L 191.445312 206 L 191.316406 206.417969 L 191.195312 206.816406 L 190.148438 210.210938 L 188.535156 216.074219 L 187.109375 221.980469 L 186.777344 223.53125 L 186.660156 224.078125 C 186.660156 224.058594 186.660156 224.039062 186.660156 224.015625 C 186.660156 223.808594 186.628906 223.53125 186.613281 223.28125 L 186.5625 222.519531 L 186.351562 219.472656 C 186.296875 218.453125 186.152344 217.445312 186.058594 216.433594 L 185.972656 215.605469 L 185.738281 213.394531 L 185.332031 210.371094 C 185.1875 209.367188 185.078125 208.355469 184.917969 207.351562 L 184.882812 207.121094 L 184.824219 206.734375 L 184.769531 206.359375 L 184.460938 204.335938 C 184.324219 203.453125 184.179688 202.570312 184.035156 201.6875 C 182.863281 194.550781 181.441406 187.457031 179.945312 180.386719 C 179.851562 179.941406 179.75 179.5 179.65625 179.058594 C 178.816406 175.089844 177.929688 171.128906 177.027344 167.175781 C 176.542969 165.066406 176.0625 162.957031 175.578125 160.851562 C 175.253906 159.441406 174.929688 158.035156 174.605469 156.625 C 172.832031 148.871094 171.085938 141.113281 169.472656 133.328125 C 175.144531 132.65625 180.847656 132.269531 186.558594 132.1875 Z M 204.515625 176.828125 L 207.363281 171.492188 L 210.34375 166.226562 L 213.484375 161.058594 C 217.722656 154.328125 222.335938 147.828125 227.402344 141.691406 C 229.75 142.214844 232.074219 142.84375 234.363281 143.589844 C 235.558594 143.976562 236.746094 144.398438 237.917969 144.851562 C 238.503906 145.078125 239.089844 145.3125 239.671875 145.550781 L 240.539062 145.910156 C 240.679688 145.988281 240.800781 145.914062 241.066406 145.878906 C 240.683594 146.3125 240.300781 146.738281 239.925781 147.164062 C 239.796875 147.308594 239.675781 147.449219 239.550781 147.589844 C 239.421875 147.734375 239.296875 147.875 239.171875 148.019531 C 237.222656 150.246094 235.355469 152.476562 233.40625 155.058594 C 230.839844 158.316406 228.363281 161.636719 225.867188 164.945312 C 220.953125 171.617188 216.152344 178.375 211.570312 185.277344 C 207.152344 191.9375 202.90625 198.710938 198.757812 205.539062 C 198.671875 205.683594 198.582031 205.828125 198.492188 205.972656 C 198.429688 206.078125 198.363281 206.183594 198.300781 206.289062 C 198.277344 206.324219 198.257812 206.363281 198.234375 206.398438 C 195.332031 211.210938 192.496094 216.066406 189.71875 220.953125 C 189.390625 221.53125 189.0625 222.109375 188.734375 222.6875 C 188.382812 223.3125 188.035156 223.941406 187.683594 224.570312 C 187.589844 224.738281 187.496094 224.90625 187.402344 225.078125 C 187.3125 225.234375 187.226562 225.390625 187.140625 225.542969 L 187.476562 223.945312 L 187.851562 222.152344 L 188.417969 219.882812 L 189.316406 216.277344 L 190.957031 210.449219 L 191.457031 208.871094 L 192.121094 206.765625 L 192.25 206.363281 L 192.382812 205.945312 L 192.78125 204.679688 C 193.015625 203.976562 193.257812 203.273438 193.5 202.574219 C 193.949219 201.273438 194.410156 199.980469 194.886719 198.691406 C 196.949219 193.105469 199.265625 187.617188 201.828125 182.246094 Z M 256.097656 163.035156 C 258.742188 165.863281 261.273438 168.800781 263.691406 171.824219 C 264.902344 173.339844 266.085938 174.875 267.238281 176.429688 L 268.921875 178.757812 C 269.390625 179.429688 269.917969 179.996094 270.527344 180.648438 C 269.621094 180.847656 268.832031 181.023438 268.023438 181.324219 L 265.195312 182.359375 L 264.671875 182.550781 L 264.125 182.75 L 263.5625 182.957031 L 259.496094 184.441406 C 255.699219 185.839844 251.921875 187.296875 248.144531 188.753906 C 240.605469 191.691406 233.132812 194.84375 225.875 198.464844 C 222.246094 200.277344 218.667969 202.199219 215.1875 204.289062 C 215.152344 204.3125 215.113281 204.335938 215.074219 204.359375 C 214.800781 204.527344 214.535156 204.699219 214.261719 204.867188 C 214.003906 205.027344 213.746094 205.1875 213.488281 205.347656 C 210.613281 207.152344 207.804688 209.066406 205.105469 211.128906 C 199.90625 215.101562 195.074219 219.640625 191.066406 224.84375 C 190.589844 225.460938 190.128906 226.089844 189.675781 226.726562 C 189.664062 226.746094 189.652344 226.761719 189.636719 226.78125 C 189.335938 227.210938 189.035156 227.644531 188.746094 228.082031 C 188.742188 228.082031 188.742188 228.085938 188.738281 228.089844 C 188.71875 228.121094 188.699219 228.152344 188.675781 228.183594 C 188.628906 228.257812 188.578125 228.328125 188.527344 228.402344 C 188.519531 228.398438 188.507812 228.394531 188.496094 228.390625 C 188.460938 228.378906 188.425781 228.363281 188.390625 228.351562 C 188.210938 228.285156 188.03125 228.222656 187.847656 228.164062 C 187.507812 228.050781 187.160156 227.953125 186.804688 227.871094 C 186.855469 227.746094 186.90625 227.621094 186.957031 227.492188 C 189.035156 223.753906 191.179688 220.046875 193.367188 216.363281 C 195.589844 213.140625 198.28125 210.242188 201.015625 207.414062 C 201.433594 206.980469 201.863281 206.558594 202.285156 206.128906 C 202.433594 205.980469 202.578125 205.832031 202.726562 205.683594 C 202.878906 205.535156 203.023438 205.382812 203.175781 205.234375 C 205.617188 202.820312 208.148438 200.492188 210.722656 198.214844 C 214.082031 195.273438 217.589844 192.507812 221.078125 189.726562 C 224.570312 186.945312 228.035156 184.125 231.652344 181.511719 C 231.773438 181.425781 231.800781 181.257812 231.71875 181.136719 C 231.632812 181.015625 231.464844 180.984375 231.34375 181.066406 C 229.492188 182.332031 227.6875 183.65625 225.867188 184.957031 L 223.160156 186.945312 C 222.261719 187.617188 221.378906 188.304688 220.492188 188.988281 C 216.972656 191.753906 213.585938 194.6875 210.210938 197.628906 C 207.335938 200.117188 204.511719 202.667969 201.792969 205.328125 C 201.640625 205.480469 201.484375 205.628906 201.332031 205.78125 C 201.183594 205.929688 201.03125 206.074219 200.882812 206.222656 C 200.703125 206.402344 200.519531 206.578125 200.339844 206.757812 C 199.5625 207.566406 198.808594 208.398438 198.039062 209.21875 C 197.621094 209.667969 197.21875 210.140625 196.824219 210.613281 C 197.59375 209.339844 198.367188 208.070312 199.144531 206.804688 C 199.242188 206.640625 199.347656 206.480469 199.445312 206.320312 C 199.535156 206.175781 199.625 206.035156 199.714844 205.890625 C 199.804688 205.746094 199.894531 205.601562 199.984375 205.457031 C 200.367188 204.839844 200.75 204.222656 201.132812 203.605469 C 201.140625 203.597656 201.152344 203.59375 201.160156 203.585938 C 202.492188 201.886719 204.039062 200.367188 205.535156 198.804688 C 207.027344 197.242188 208.488281 195.636719 210.050781 194.132812 C 211.613281 192.628906 213.238281 191.1875 214.851562 189.734375 L 219.621094 185.300781 L 219.625 185.296875 C 219.765625 185.164062 219.777344 184.945312 219.652344 184.796875 C 219.523438 184.648438 219.296875 184.628906 219.144531 184.757812 C 217.488281 186.171875 215.824219 187.574219 214.214844 189.039062 C 212.621094 190.523438 211.070312 192.054688 209.511719 193.570312 C 207.949219 195.089844 206.332031 196.558594 204.847656 198.160156 C 204.515625 198.515625 204.195312 198.882812 203.878906 199.25 C 205.703125 196.378906 207.546875 193.519531 209.410156 190.675781 C 211.847656 188.03125 214.355469 185.441406 216.824219 182.820312 C 219.378906 180.0625 221.953125 177.320312 224.539062 174.589844 C 227.136719 171.871094 229.835938 169.25 232.464844 166.566406 C 235.097656 163.886719 237.648438 161.113281 240.394531 158.5625 L 240.398438 158.5625 C 240.503906 158.460938 240.511719 158.296875 240.417969 158.183594 C 240.316406 158.074219 240.144531 158.0625 240.035156 158.160156 C 238.617188 159.40625 237.234375 160.691406 235.863281 161.980469 C 234.484375 163.265625 233.121094 164.566406 231.792969 165.902344 C 229.136719 168.570312 226.585938 171.339844 223.976562 174.050781 L 216.136719 182.175781 C 214.804688 183.597656 213.484375 185.035156 212.175781 186.480469 C 212.296875 186.296875 212.417969 186.109375 212.542969 185.921875 L 215.984375 180.761719 L 219.496094 175.652344 C 220.660156 173.945312 221.863281 172.265625 223.066406 170.582031 C 224.273438 168.90625 225.445312 167.199219 226.6875 165.546875 L 230.386719 160.570312 C 230.996094 159.738281 231.644531 158.933594 232.285156 158.121094 L 234.207031 155.6875 L 236.128906 153.257812 C 236.4375 152.855469 236.785156 152.441406 237.132812 152.019531 L 238.167969 150.753906 C 238.753906 150.027344 239.335938 149.296875 239.914062 148.566406 C 242.628906 150.566406 245.253906 152.691406 247.777344 154.933594 C 250.667969 157.507812 253.453125 160.207031 256.097656 163.035156 Z M 270.898438 190.171875 C 272.492188 191.847656 274.0625 193.546875 275.59375 195.277344 C 276.363281 196.140625 277.117188 197.019531 277.859375 197.90625 C 278.234375 198.34375 278.59375 198.792969 278.960938 199.238281 C 279.175781 199.5 279.242188 199.605469 279.390625 199.699219 C 279.53125 199.792969 279.734375 199.867188 279.953125 200 C 278.988281 200.046875 278.066406 200.078125 277.164062 200.152344 C 276.964844 200.167969 276.769531 200.191406 276.574219 200.210938 C 276.339844 200.234375 276.105469 200.257812 275.871094 200.285156 C 275.847656 200.289062 275.828125 200.289062 275.808594 200.292969 L 275.121094 200.378906 L 274.375 200.480469 C 273.882812 200.554688 273.394531 200.621094 272.902344 200.691406 C 271.375 200.90625 269.847656 201.117188 268.324219 201.355469 C 266.386719 201.644531 264.449219 201.9375 262.519531 202.257812 C 262.441406 202.269531 262.363281 202.28125 262.285156 202.292969 C 262.152344 202.3125 262.019531 202.335938 261.890625 202.355469 C 261.675781 202.386719 261.464844 202.421875 261.253906 202.457031 C 259.585938 202.71875 257.917969 202.988281 256.25 203.265625 C 248.210938 204.617188 240.203125 206.179688 232.277344 208.125 C 228.3125 209.085938 224.378906 210.183594 220.480469 211.398438 C 216.585938 212.621094 212.726562 213.972656 208.941406 215.523438 C 208.933594 215.523438 208.929688 215.527344 208.921875 215.53125 C 205.363281 216.984375 201.875 218.632812 198.535156 220.5625 C 198.328125 220.683594 198.121094 220.796875 197.917969 220.917969 C 196.535156 221.753906 195.171875 222.648438 193.863281 223.617188 C 193.300781 224.03125 192.753906 224.464844 192.214844 224.910156 C 192.339844 224.757812 192.460938 224.601562 192.585938 224.445312 C 192.902344 224.058594 193.222656 223.675781 193.546875 223.296875 C 197.152344 219.082031 201.324219 215.335938 205.761719 211.996094 C 208.976562 209.578125 212.339844 207.359375 215.792969 205.296875 C 215.867188 205.253906 215.941406 205.210938 216.011719 205.167969 C 216.289062 205.003906 216.566406 204.84375 216.84375 204.679688 C 217.136719 204.507812 217.425781 204.335938 217.71875 204.164062 C 220.554688 202.511719 223.445312 200.949219 226.378906 199.46875 C 233.578125 195.839844 241 192.648438 248.507812 189.675781 C 252.257812 188.175781 256.054688 186.792969 259.847656 185.410156 L 264.445312 183.765625 C 264.972656 184.253906 265.496094 184.746094 266.011719 185.246094 C 267.675781 186.851562 269.300781 188.5 270.898438 190.171875 Z M 280.953125 207.570312 C 282.582031 209.773438 284.140625 212.027344 285.652344 214.316406 C 282.902344 214.054688 280.152344 213.816406 277.398438 213.605469 C 277.183594 213.589844 276.964844 213.574219 276.75 213.558594 C 276.53125 213.542969 276.316406 213.527344 276.097656 213.511719 C 275.234375 213.449219 274.371094 213.386719 273.507812 213.328125 C 273.234375 213.3125 272.964844 213.296875 272.695312 213.277344 C 272.417969 213.261719 272.140625 213.242188 271.863281 213.226562 C 268.375 213.011719 264.886719 212.84375 261.390625 212.742188 C 252.921875 212.464844 244.429688 212.59375 235.96875 213.195312 C 227.515625 213.816406 219.0625 214.886719 210.828125 217.023438 C 207.28125 217.949219 203.773438 219.09375 200.410156 220.578125 C 203.289062 219.027344 206.277344 217.671875 209.320312 216.460938 C 210.039062 216.171875 210.757812 215.898438 211.480469 215.625 C 213.675781 214.796875 215.894531 214.023438 218.132812 213.304688 C 219.964844 212.714844 221.808594 212.15625 223.664062 211.625 C 226.613281 210.78125 229.582031 209.996094 232.554688 209.246094 C 236.492188 208.253906 240.460938 207.367188 244.441406 206.546875 C 248.417969 205.710938 252.417969 204.96875 256.421875 204.261719 C 258.308594 203.925781 260.203125 203.613281 262.097656 203.3125 C 262.3125 203.277344 262.527344 203.242188 262.738281 203.210938 C 262.949219 203.175781 263.160156 203.148438 263.371094 203.113281 C 265.070312 202.851562 266.769531 202.601562 268.472656 202.363281 C 270.484375 202.066406 272.5 201.816406 274.515625 201.539062 L 276.011719 201.339844 L 276.640625 202.082031 C 277.136719 202.675781 277.628906 203.277344 278.117188 203.878906 C 279.089844 205.085938 280.03125 206.324219 280.953125 207.570312 Z M 281.4375 221.390625 L 283.339844 224.164062 L 283.914062 225.003906 C 283.667969 224.949219 283.421875 224.894531 283.171875 224.84375 C 275.542969 223.195312 267.898438 221.570312 260.203125 220.207031 C 252.066406 218.765625 243.855469 217.644531 235.585938 217.128906 C 227.332031 216.632812 218.96875 216.808594 210.785156 218.324219 C 208.636719 218.71875 206.503906 219.226562 204.402344 219.84375 C 206.578125 219.070312 208.800781 218.414062 211.039062 217.84375 C 219.210938 215.78125 227.625 214.769531 236.039062 214.230469 C 244.464844 213.695312 252.917969 213.6875 261.359375 213.890625 C 265.242188 214 269.128906 214.167969 273.007812 214.394531 C 273.285156 214.410156 273.5625 214.425781 273.839844 214.441406 C 274.109375 214.460938 274.382812 214.476562 274.652344 214.496094 C 275.386719 214.542969 276.117188 214.589844 276.847656 214.640625 C 277.53125 215.664062 278.214844 216.691406 278.910156 217.707031 Z M 166.023438 139.007812 C 166.050781 139.078125 166.078125 139.148438 166.109375 139.214844 L 166.234375 139.476562 L 166.800781 140.691406 C 167.179688 141.5 167.535156 142.320312 167.886719 143.140625 C 168.585938 144.785156 169.253906 146.445312 169.882812 148.117188 C 170.515625 149.785156 171.113281 151.472656 171.730469 153.148438 L 173.398438 157.769531 C 172.09375 158.574219 170.796875 159.394531 169.496094 160.207031 L 165.644531 162.617188 L 165.523438 162.691406 L 162.914062 159.074219 L 162.71875 158.800781 L 159.734375 154.566406 C 158.792969 153.210938 157.859375 151.855469 156.921875 150.496094 C 156.027344 149.199219 155.128906 147.902344 154.222656 146.613281 C 154.09375 146.425781 153.964844 146.234375 153.832031 146.046875 L 152.347656 143.921875 L 151.628906 142.921875 C 153.164062 142.234375 154.726562 141.601562 156.316406 141.050781 C 157.121094 140.761719 157.9375 140.503906 158.757812 140.25 C 159.578125 140.011719 160.40625 139.800781 161.238281 139.59375 C 162.070312 139.398438 162.90625 139.210938 163.746094 139.046875 L 164.375 138.929688 L 164.960938 138.828125 C 165.28125 138.769531 165.578125 138.671875 165.910156 138.550781 C 165.941406 138.71875 165.976562 138.867188 166.023438 139.007812 Z M 232.914062 224.125 C 232.71875 224.113281 232.550781 224.265625 232.539062 224.460938 C 232.53125 224.550781 232.5625 224.628906 232.613281 224.695312 C 232.671875 224.777344 232.765625 224.835938 232.875 224.84375 C 237.347656 225.117188 241.8125 225.480469 246.277344 225.855469 C 250.742188 226.195312 255.203125 226.605469 259.65625 227.085938 C 264.109375 227.582031 268.535156 228.269531 272.972656 228.886719 C 275.195312 229.195312 277.425781 229.460938 279.664062 229.675781 C 281.902344 229.886719 284.144531 230.070312 286.390625 230.152344 C 286.484375 230.15625 286.566406 230.109375 286.617188 230.039062 C 286.726562 230.234375 286.839844 230.425781 286.953125 230.621094 C 287.765625 232.046875 288.585938 233.46875 289.429688 234.882812 C 281.484375 234.335938 273.535156 233.894531 265.578125 233.535156 C 257.363281 233.175781 249.140625 232.875 240.917969 232.757812 C 232.695312 232.640625 224.46875 232.636719 216.242188 232.742188 L 210.074219 232.816406 L 203.90625 232.921875 L 197.742188 233.066406 C 195.796875 233.117188 193.886719 233.203125 191.941406 233.328125 C 191.9375 233.324219 191.9375 233.320312 191.9375 233.316406 C 191.976562 233.265625 192.011719 233.242188 192.003906 233.222656 L 191.855469 232.851562 C 191.75 232.597656 191.640625 232.347656 191.527344 232.097656 C 191.375 231.765625 191.203125 231.441406 191.027344 231.121094 C 193.210938 230.304688 195.433594 229.59375 197.664062 228.929688 C 199.925781 228.230469 202.207031 227.601562 204.523438 227.097656 C 204.714844 227.058594 204.902344 227.011719 205.09375 226.96875 C 207.605469 226.449219 210.15625 226.148438 212.695312 225.84375 L 216.515625 225.402344 L 218.429688 225.234375 L 220.351562 225.121094 L 220.359375 225.121094 C 220.472656 225.113281 220.566406 225.035156 220.597656 224.933594 C 220.605469 224.90625 220.613281 224.878906 220.613281 224.847656 C 220.613281 224.699219 220.488281 224.578125 220.339844 224.582031 L 218.402344 224.601562 L 218.386719 224.601562 L 216.464844 224.652344 L 214.523438 224.742188 C 213.878906 224.785156 213.234375 224.851562 212.589844 224.910156 C 210.410156 225.140625 208.253906 225.546875 206.105469 225.972656 C 205.71875 226.050781 205.328125 226.128906 204.9375 226.207031 C 203.542969 226.492188 202.152344 226.796875 200.765625 227.132812 C 199.636719 227.40625 198.511719 227.699219 197.394531 228.027344 C 197.386719 228.027344 197.378906 228.03125 197.367188 228.035156 C 195.085938 228.726562 192.847656 229.566406 190.644531 230.472656 C 190.363281 230.03125 190.0625 229.601562 189.730469 229.195312 C 189.636719 229.074219 189.535156 228.957031 189.433594 228.839844 C 189.429688 228.835938 189.429688 228.832031 189.425781 228.832031 C 189.570312 228.675781 189.714844 228.523438 189.863281 228.375 C 190.550781 227.691406 191.273438 227.046875 192.027344 226.4375 C 194.296875 224.988281 196.703125 223.746094 199.195312 222.710938 C 202.976562 221.167969 206.945312 220.078125 210.976562 219.363281 C 219.054688 217.910156 227.316406 217.816406 235.523438 218.285156 C 243.734375 218.726562 251.914062 219.773438 260.039062 221.144531 C 265.570312 222.082031 271.078125 223.160156 276.582031 224.28125 C 278.15625 224.605469 279.734375 224.929688 281.308594 225.257812 C 282.253906 225.453125 283.199219 225.648438 284.144531 225.847656 C 284.148438 225.847656 284.152344 225.847656 284.15625 225.851562 C 284.160156 225.859375 284.167969 225.867188 284.171875 225.875 C 284.179688 225.886719 284.183594 225.898438 284.191406 225.90625 C 284.941406 227.125 285.65625 228.363281 286.367188 229.609375 C 284.15625 229.460938 281.949219 229.242188 279.75 228.929688 C 277.535156 228.625 275.324219 228.269531 273.105469 227.953125 C 268.667969 227.304688 264.199219 226.824219 259.742188 226.3125 C 255.289062 225.78125 250.824219 225.320312 246.351562 224.917969 C 243.867188 224.714844 241.375 224.554688 238.886719 224.417969 C 236.894531 224.308594 234.90625 224.210938 232.914062 224.125 Z M 242.917969 173.113281 C 244.1875 172.300781 245.40625 171.402344 246.699219 170.621094 C 247.34375 170.226562 248.011719 169.871094 248.683594 169.523438 L 250.699219 168.476562 C 250.832031 168.40625 250.996094 168.460938 251.0625 168.59375 C 251.128906 168.71875 251.085938 168.871094 250.964844 168.945312 L 250.960938 168.949219 C 250.324219 169.34375 249.6875 169.738281 249.066406 170.167969 C 248.445312 170.59375 247.828125 171.023438 247.195312 171.421875 C 245.925781 172.226562 244.601562 172.945312 243.339844 173.765625 C 242.074219 174.578125 240.863281 175.472656 239.613281 176.308594 C 238.363281 177.144531 237.074219 177.921875 235.808594 178.742188 C 235.644531 178.847656 235.417969 178.800781 235.3125 178.636719 C 235.207031 178.472656 235.246094 178.257812 235.402344 178.144531 C 236.628906 177.265625 237.835938 176.363281 239.089844 175.523438 C 240.347656 174.691406 241.652344 173.933594 242.917969 173.113281 Z M 192.558594 188.3125 C 192.597656 186.535156 192.644531 184.757812 192.660156 182.980469 C 192.683594 181.203125 192.707031 179.425781 192.769531 177.648438 C 192.890625 174.097656 193.132812 170.546875 193.261719 166.996094 L 193.589844 156.335938 C 193.734375 152.78125 193.9375 149.230469 194.113281 145.679688 C 194.121094 145.480469 194.292969 145.328125 194.492188 145.339844 C 194.6875 145.347656 194.839844 145.511719 194.832031 145.707031 C 194.734375 149.261719 194.664062 152.816406 194.53125 156.371094 L 194.039062 167.023438 C 193.898438 170.578125 193.863281 174.132812 193.710938 177.683594 C 193.636719 179.460938 193.523438 181.234375 193.410156 183.011719 C 193.289062 184.785156 193.203125 186.558594 193.101562 188.335938 C 193.09375 188.484375 192.964844 188.597656 192.816406 188.589844 C 192.667969 188.582031 192.558594 188.457031 192.558594 188.3125 Z M 184.695312 159.84375 C 184.25 155.21875 183.945312 150.574219 183.792969 145.925781 C 183.785156 145.726562 183.941406 145.558594 184.140625 145.550781 C 184.335938 145.546875 184.503906 145.699219 184.511719 145.894531 C 184.738281 150.523438 185.179688 155.136719 185.632812 159.75 C 186.050781 164.371094 186.546875 168.984375 187.011719 173.605469 C 187.492188 178.222656 188.046875 182.839844 188.332031 187.484375 C 188.390625 188.648438 188.457031 189.808594 188.496094 190.972656 L 188.5625 194.460938 L 188.558594 197.949219 L 188.480469 201.4375 C 188.476562 201.589844 188.351562 201.707031 188.203125 201.703125 C 188.054688 201.699219 187.9375 201.582031 187.9375 201.433594 L 187.9375 201.425781 L 187.925781 197.953125 L 187.816406 194.480469 L 187.621094 191.011719 C 187.53125 189.859375 187.464844 188.703125 187.390625 187.546875 C 187.074219 182.925781 186.730469 178.300781 186.238281 173.6875 C 185.726562 169.074219 185.175781 164.464844 184.695312 159.84375 Z M 135.21875 157.351562 C 135.09375 157.265625 135.066406 157.09375 135.152344 156.972656 C 135.230469 156.863281 135.375 156.828125 135.492188 156.886719 C 135.832031 157.046875 136.164062 157.21875 136.507812 157.371094 C 136.855469 157.519531 137.203125 157.664062 137.523438 157.855469 C 138.175781 158.21875 138.765625 158.691406 139.414062 159.066406 C 140.054688 159.449219 140.738281 159.757812 141.386719 160.136719 C 142.027344 160.515625 142.632812 160.960938 143.257812 161.371094 C 143.425781 161.480469 143.472656 161.703125 143.363281 161.871094 C 143.257812 162.027344 143.054688 162.078125 142.890625 161.992188 C 142.230469 161.644531 141.550781 161.328125 140.90625 160.945312 C 140.261719 160.5625 139.664062 160.113281 139.015625 159.734375 C 138.375 159.351562 137.679688 159.058594 137.046875 158.667969 C 136.722656 158.476562 136.429688 158.238281 136.132812 158.007812 C 135.832031 157.777344 135.523438 157.570312 135.21875 157.351562 Z M 238.992188 167.933594 C 241.003906 166.316406 243.0625 164.757812 245.113281 163.191406 C 245.273438 163.074219 245.5 163.101562 245.621094 163.261719 C 245.738281 163.417969 245.710938 163.636719 245.5625 163.757812 L 245.558594 163.761719 L 239.585938 168.667969 C 237.566406 170.269531 235.535156 171.855469 233.542969 173.492188 C 231.550781 175.128906 229.640625 176.859375 227.660156 178.511719 C 225.679688 180.15625 223.632812 181.730469 221.660156 183.390625 C 221.546875 183.488281 221.375 183.472656 221.28125 183.359375 C 221.1875 183.246094 221.199219 183.082031 221.304688 182.984375 L 224.167969 180.375 C 225.117188 179.5 226.070312 178.628906 227.050781 177.792969 C 229.011719 176.113281 231.058594 174.539062 233.046875 172.894531 Z M 238.992188 167.933594 " fill-opacity="1" fill-rule="nonzero"/></g></svg>